<svg xmlns="http://www.w3.org/2000/svg" xmlns:xlink="http://www.w3.org/1999/xlink" viewBox="0 0 268.33 60"><defs><style>.cls-1{fill:#82bc00;}.cls-2{fill:url(#linear-gradient);}.cls-3{fill:url(#linear-gradient-2);}.cls-4{isolation:isolate;}</style><linearGradient id="linear-gradient" x1="22.7" y1="-681.36" x2="62.91" y2="-704.58" gradientTransform="matrix(0, -1, -1, 0, -455.42, 72.93)" gradientUnits="userSpaceOnUse"><stop offset="0" stop-color="#41a1da"/><stop offset="1" stop-color="#fff"/></linearGradient><linearGradient id="linear-gradient-2" x1="212.85" y1="-1055.33" x2="262.27" y2="-1055.33" gradientTransform="matrix(1, 0, 0, -1, 0, -1025.2)" gradientUnits="userSpaceOnUse"><stop offset="0" stop-color="#0d3558"/><stop offset="1" stop-color="#93d5f6"/></linearGradient></defs><title>logo_nsr</title><g id="Layer_5" data-name="Layer 5"><path class="cls-1" d="M150.06,16.7c.39.26.87,0,1.32.33l-1.85,1.91c-.17.18-.34,0-.5,0a6.78,6.78,0,0,0-2.47-.36,4,4,0,0,0-3.38,2.57,13.07,13.07,0,0,0-.94,3.93c-.15,1.18-.25,2.36-.39,3.54-.06.52,0,.71.62.7,1.86,0,3.73,0,5.6,0,.22,0,.43,0,.74,0A6.36,6.36,0,0,0,147.55,32c-.11.43,0,.53.43.53l5.66,0c.16,0,.36.07.41-.22a3.47,3.47,0,0,0-3.09-3.7h-.37c-.14,0-.26,0-.27-.16s.09-.2.22-.23c2.7-.76,6,1.88,5.85,4.64,0,.47-.33.33-.57.33-2.58,0-5.17,0-7.75,0-.64,0-.8.21-.82.79A7.36,7.36,0,0,0,149,39.21a4.63,4.63,0,0,0,5.27,1.24,3.42,3.42,0,0,0,2-2c.06-.15.07-.43.33-.33s.09.32,0,.47a4.15,4.15,0,0,1-2.17,2.62,7.43,7.43,0,0,1-7.93-1.16,7.29,7.29,0,0,1-1.21-8.42l.22-.42c-.1-.21-.26-.14-.39-.14-1,0-2.06,0-3.08,0-.36,0-.49.09-.53.46-.22,2.08-.44,4.16-.7,6.23-.36,3-.33,6-1,9a11.72,11.72,0,0,1-4.13,7.06,8.43,8.43,0,0,1-3.84,1.69c-.1,0-.21,0-.26.12H129.5l-1-.33,1.87-1.7c.18-.17.38,0,.58,0a6,6,0,0,0,2.42.25,4.45,4.45,0,0,0,3.37-2.58,11.22,11.22,0,0,0,1.11-4.14c.52-5.13,1-10.28,1.53-15.41,0-.5-.09-.63-.57-.6-.65,0-1.3,0-2.13,0,.63-.65,1.14-1.21,1.67-1.75.16-.16.39-.1.59-.07.54.07.74-.12.78-.69a16.83,16.83,0,0,1,1-4.8,10.14,10.14,0,0,1,4.68-5.93,9.26,9.26,0,0,1,3.32-1c.12,0,.3.06.37-.14Z"/><path d="M199.9,36.39c-.21.07-.15.28-.17.42a6.43,6.43,0,0,1-7.46,5,9.32,9.32,0,0,1-2.17-.63c-.92-.39-1.37-.23-1.91.62,0,0-.06.06-.07.1-.09.33-.33.37-.62.33s-.21-.34-.21-.53q0-8.73,0-17.48a6.77,6.77,0,0,0-.17-1.65A1.86,1.86,0,0,0,185.36,21c-.16,0-.41.1-.44-.2s.23-.26.43-.3c1.28-.17,2.56-.32,3.83-.54.46-.07.5.06.5.46,0,3,0,5.94,0,8.92V30a5.24,5.24,0,0,1,6.07-1.49,5.79,5.79,0,0,1,4,4.81c0,.09,0,.16.11.18C199.9,34.51,199.9,35.45,199.9,36.39Zm-10.23-1.53a16.07,16.07,0,0,0,.41,4.27,2.87,2.87,0,0,0,3.58,2.22,3.74,3.74,0,0,0,2.45-1.9,8.63,8.63,0,0,0,.89-6.29,6,6,0,0,0-2.22-3.84,2.86,2.86,0,0,0-4.21.66,3.81,3.81,0,0,0-.63,1.51A13.43,13.43,0,0,0,189.68,34.87Z"/><path d="M79.92,38.28V35.51c0-.14-.11-.36.15-.39s.3.15.34.34a12.92,12.92,0,0,0,1.35,3.34c1.08,1.71,2.51,2.88,4.68,2.68a4,4,0,0,0,3.64-4.59A4.84,4.84,0,0,0,87.59,33c-1.3-.74-2.62-1.42-3.93-2.15a5.28,5.28,0,0,1-2.93-3.73,5.9,5.9,0,0,1,1.9-5.67,5.57,5.57,0,0,1,5.85-1.11c.64.21,1.26.49,1.9.71s1,.23,1.24-.46a.26.26,0,0,1,.33-.2c.2,0,.14.23.14.36,0,1.82.06,3.64.09,5.46,0,.14.07.3-.17.3s-.23-.1-.28-.26c-.15-.53-.32-1.06-.49-1.58a7.58,7.58,0,0,0-1.85-3.08,3.79,3.79,0,0,0-5.32-.09,3.68,3.68,0,0,0,.26,5.33,11.69,11.69,0,0,0,3.2,1.9,14,14,0,0,1,4,2.5A6,6,0,0,1,93,37.72a5.93,5.93,0,0,1-5,4.21,9.27,9.27,0,0,1-5.28-.68c-.36-.15-.71-.31-1.08-.44a1,1,0,0,0-1.28.39c-.09.14-.17.3-.37.25s-.14-.27-.14-.42c0-.92,0-1.85,0-2.77Z"/><path class="cls-1" d="M121.5,41.55h-8.31a2.57,2.57,0,0,1-.31,0c-.2,0-.53.15-.55-.18s.32-.21.5-.27.28,0,.43-.06a2.72,2.72,0,0,0,2.22-2.73c0-.38.06-.78.06-1.17l0-12.86c0-.15,0-.28,0-.43a2.74,2.74,0,0,0-2.67-2.89c-.18,0-.49,0-.48-.25s.32-.18.49-.18q4.43,0,8.86,0c.16,0,.41-.11.46.16s-.17.25-.33.26c-2.35.22-2.82,1.64-2.83,3.32,0,4.26-.16,8.53.07,12.79a3.75,3.75,0,0,0,3.83,3.9,11.79,11.79,0,0,0,2.94-.11,5.07,5.07,0,0,0,4.09-3.48c.21-.59.34-1.22.53-1.82,0-.14,0-.37.26-.34s.21.25.21.42c0,1.85-.11,3.69-.15,5.53,0,.46-.27.42-.57.42C127.27,41.54,124.38,41.55,121.5,41.55Z"/><path d="M100.48,41.8c-3.25,0-5.59-1.62-6.35-4.44a7.13,7.13,0,0,1,4.27-8.71,7.41,7.41,0,0,1,5,0,3.31,3.31,0,0,1,1.38.9,1.42,1.42,0,0,1,.37,1.53,1,1,0,0,1-1,.7,1.37,1.37,0,0,1-1.3-.86,5.15,5.15,0,0,1-.32-.86,1.89,1.89,0,0,0-2.6-1.32,3.48,3.48,0,0,0-2.1,1.69,8.13,8.13,0,0,0-.44,7.88A4.53,4.53,0,0,0,101,41.1a3.29,3.29,0,0,0,3.67-2c.07-.16.06-.5.36-.38s.06.36,0,.52a4,4,0,0,1-3.8,2.61C101,41.81,100.73,41.8,100.48,41.8Z"/><path class="cls-1" d="M135.9,34c0,1.6,0,3.2,0,4.8s.37,1.91,1.77,2.31c.16,0,.43,0,.38.3s-.3.16-.47.16q-3,0-5.91,0c-.15,0-.41.12-.44-.17s.21-.23.34-.25c1.33-.14,1.77-.89,1.85-2.19.12-2.15.09-4.31,0-6.45a12.23,12.23,0,0,0-.1-1.65,1.78,1.78,0,0,0-1.62-1.66c-.15,0-.37,0-.37-.2s.22-.2.37-.21c1.19-.16,2.4-.3,3.59-.47.43-.06.52.09.52.49,0,1.75,0,3.48,0,5.23C135.87,34,135.89,34,135.9,34Z"/><path d="M109.72,33.79c0,1.66,0,3.32,0,5,0,1.46.39,1.91,1.78,2.31.16,0,.43,0,.37.3s-.3.15-.46.15q-3,0-5.91,0c-.16,0-.42.11-.42-.2s.22-.21.37-.25c1.34-.33,1.7-.69,1.8-2.08a59.89,59.89,0,0,0,0-7.86c-.07-1.28-.52-1.72-1.75-2-.14,0-.3,0-.27-.23s.15-.16.27-.17c1.28-.16,2.56-.31,3.84-.49.44-.06.34.2.34.43v5.11S109.71,33.79,109.72,33.79Z"/><path d="M108.47,22.86a1.46,1.46,0,0,1,1.45,1.43,1.48,1.48,0,0,1-1.5,1.46A1.44,1.44,0,0,1,107,24.3,1.42,1.42,0,0,1,108.47,22.86Z"/><path class="cls-1" d="M133.2,24.31a1.46,1.46,0,0,1,2.93,0,1.47,1.47,0,0,1-1.43,1.48A1.45,1.45,0,0,1,133.2,24.31Z"/><path d="M164.52,41.55h-8.86c-.14,0-.3,0-.31-.18s.12-.22.27-.23a6.77,6.77,0,0,0,.85-.14,2.54,2.54,0,0,0,2-2.18,9.22,9.22,0,0,0,.14-1.65c0-4.26,0-8.53,0-12.79a7.4,7.4,0,0,0-.14-1.28A2.58,2.58,0,0,0,156.24,21c-.18,0-.37,0-.55-.07s-.36,0-.33-.25.21-.15.33-.16h9.17c.12,0,.31-.07.34.15s-.16.23-.32.26a7.7,7.7,0,0,0-.9.17,2.5,2.5,0,0,0-1.86,2.07,10.07,10.07,0,0,0-.15,2c0,3.57,0,7.14,0,10.71a12.14,12.14,0,0,0,.14,1.77,3.49,3.49,0,0,0,2.92,3.14,9.31,9.31,0,0,0,4.5-.15,5,5,0,0,0,3.37-3.31c.21-.58.34-1.18.5-1.77,0-.18,0-.46.32-.42s.17.28.16.43c0,1.82-.12,3.64-.16,5.46,0,.46-.23.47-.58.47C170.31,41.54,167.42,41.55,164.52,41.55Z"/><path d="M181.75,40a5,5,0,0,1-4.15,1.75,5.17,5.17,0,0,1-1.14-.18,2.84,2.84,0,0,1-2.24-2.47A3.12,3.12,0,0,1,175.88,36a14.31,14.31,0,0,1,2.9-.95,7.1,7.1,0,0,0,2-.79,1.7,1.7,0,0,0,.8-1,4.94,4.94,0,0,0-.32-3.53,2.14,2.14,0,0,0-2-1.14,2,2,0,0,0-1.83,1.3c-.11.27-.23.53-.34.79a1.25,1.25,0,0,1-2.31-.14,1.19,1.19,0,0,1,.48-1.35,5.5,5.5,0,0,1,2.65-.91,8.28,8.28,0,0,1,4.33.54,2.62,2.62,0,0,1,1.92,2.81l0,7a4.56,4.56,0,0,0,.11,1.16,1.18,1.18,0,0,0,.89,1,1.28,1.28,0,0,0,1.39-.41l.16-.18c.1-.12.2-.22.36-.1s0,.22,0,.33a2.14,2.14,0,0,1-1.27,1.18A3.15,3.15,0,0,1,182,40.39,2.13,2.13,0,0,1,181.75,40Zm0-6c-1.12.91-2.35,1.38-3.41,2.13a3.34,3.34,0,0,0-1.42,2.34A2.48,2.48,0,0,0,178,41a2.28,2.28,0,0,0,2.55-.48,3.33,3.33,0,0,0,.94-1.62A21.59,21.59,0,0,0,181.75,34Z"/><path d="M7.64,23.25V36.53a11.09,11.09,0,0,0,.18,2.32,2.57,2.57,0,0,0,1.62,1.88,5,5,0,0,0,1.41.24v.35h-7V41a5,5,0,0,0,1.41-.24,2.56,2.56,0,0,0,1-.64,2.59,2.59,0,0,0,.65-1.24A11.12,11.12,0,0,0,7,36.53V25.26A11,11,0,0,0,6.83,23a2.59,2.59,0,0,0-.65-1.24,2.44,2.44,0,0,0-1-.64,5,5,0,0,0-1.43-.24v-.35H9.68L22.07,36.3v-11A11.11,11.11,0,0,0,21.9,23a2.57,2.57,0,0,0-1.62-1.88,5,5,0,0,0-1.41-.24v-.35h7v.35a3.16,3.16,0,0,0-2.38.89A2.58,2.58,0,0,0,22.88,23a11,11,0,0,0-.18,2.3V41.32H22Z"/><path d="M25.54,41.32V41A4.81,4.81,0,0,0,27,40.72a2.59,2.59,0,0,0,1-.63,2.47,2.47,0,0,0,.66-1.24,11.59,11.59,0,0,0,.17-2.32V25.28A11.6,11.6,0,0,0,28.58,23a2.47,2.47,0,0,0-.66-1.24,2.43,2.43,0,0,0-1-.64,5,5,0,0,0-1.42-.24v-.35h10q1.53,0,2,0a6.56,6.56,0,0,1,2.88.82A4.25,4.25,0,0,1,42,22.94a4.93,4.93,0,0,1-.69,5.51,4.08,4.08,0,0,1-1,.79,11.54,11.54,0,0,1-1.63.69,13.82,13.82,0,0,1,2.27.53,5.15,5.15,0,0,1,1.47.81,5.41,5.41,0,0,1,1.52,2,6.07,6.07,0,0,1,.54,2.56,5.76,5.76,0,0,1-.56,2.54,4.77,4.77,0,0,1-1.55,1.85,5.6,5.6,0,0,1-2.14.87,19.27,19.27,0,0,1-3.5.24ZM32.09,21V30h1.24a13.82,13.82,0,0,0,1.8-.12,7.84,7.84,0,0,0,1.3-.29,3.54,3.54,0,0,0,.91-.46,3.82,3.82,0,0,0,1.2-1.49,4.73,4.73,0,0,0,.42-2,5.69,5.69,0,0,0-.43-2.21,4,4,0,0,0-1.15-1.63,3.48,3.48,0,0,0-1.43-.69A11.85,11.85,0,0,0,33.51,21Zm0,9.54v6.29a8.59,8.59,0,0,0,.16,1.85,3.11,3.11,0,0,0,.53,1.19,3.15,3.15,0,0,0,2.67,1,5.44,5.44,0,0,0,3.88-1.34,4.79,4.79,0,0,0,1.43-3.66,6.74,6.74,0,0,0-.44-2.47,4.13,4.13,0,0,0-1.19-1.75,6.72,6.72,0,0,0-4.3-1.13Z"/><path d="M53.2,20.49v.35a5,5,0,0,0-1.41.24,2.56,2.56,0,0,0-1,.64,2.87,2.87,0,0,0-.73,1.69A16.74,16.74,0,0,0,50,25.28V36.53a12.77,12.77,0,0,0,.12,2,3.24,3.24,0,0,0,.4,1.18,2.47,2.47,0,0,0,1,.91A4.54,4.54,0,0,0,53.2,41v.35H43.45V41a4.81,4.81,0,0,0,1.43-.25,2.59,2.59,0,0,0,1-.63,2.47,2.47,0,0,0,.66-1.24,11.59,11.59,0,0,0,.17-2.32V25.28A11.6,11.6,0,0,0,46.48,23a2.47,2.47,0,0,0-.66-1.24,2.43,2.43,0,0,0-1-.64,5,5,0,0,0-1.42-.24v-.35Z"/><path d="M53.57,41.26l0-6.3L54,35a13.67,13.67,0,0,0,1.53,3.79,4.89,4.89,0,0,0,4.18,2.56,3.88,3.88,0,0,0,2.9-1.18,4.09,4.09,0,0,0,1.14-3,5.32,5.32,0,0,0-.25-1.59,4.66,4.66,0,0,0-.68-1.39A5.18,5.18,0,0,0,61.54,33a23.4,23.4,0,0,0-2.45-1.39,24.29,24.29,0,0,1-2.22-1.24,6.44,6.44,0,0,1-1.24-1,5,5,0,0,1-1.31-3.5,6.06,6.06,0,0,1,.51-2.44,5.88,5.88,0,0,1,1.43-2A5.45,5.45,0,0,1,60.09,20a5.75,5.75,0,0,1,1.33.14,11.36,11.36,0,0,1,1.63.57q.76.31,1,.39a1.69,1.69,0,0,0,.49.08q.53,0,.72-.78h.35l.11,6.06H65.4Q65,25,64.69,24.2A8.31,8.31,0,0,0,64,22.78,5.49,5.49,0,0,0,62.33,21a3.78,3.78,0,0,0-2.07-.57,3.36,3.36,0,0,0-2.7,1.16,3.55,3.55,0,0,0-.65,1.12A3.69,3.69,0,0,0,56.68,24q0,2.55,3.28,4.11l2.15,1a9.68,9.68,0,0,1,3.58,2.6,5.81,5.81,0,0,1,1.25,3.7,6.57,6.57,0,0,1-.56,2.68A6,6,0,0,1,64,40.87a7,7,0,0,1-3.74,1,9.51,9.51,0,0,1-3.79-.78q-.95-.41-1.13-.47a1.3,1.3,0,0,0-.41-.06,1,1,0,0,0-1,.73Z"/></g><g id="Layer_6" data-name="Layer 6"><g id="FrontBG"><polygon class="cls-2" points="214.34 16.72 214.34 43.52 237.56 56.93 260.76 43.52 260.76 16.72 237.56 3.33 214.34 16.72"/></g><g id="frame"><path class="cls-3" d="M237.56,1.6,212.85,15.86V44.4l24.71,14.27L262.27,44.4V15.86Zm23.21,39.66h-1.59V35.15h-6.12v6.12h-6.12V35.15h-6.15v6.12h-6.12V35.15h-6.12v6.12h-6.12V35.15h-6.12v6.12h-2V16.72L237.57,3.32l23.22,13.41V41.26Z"/></g><g id="auk"><g class="cls-4"><path d="M233.56,24q0,1.21,0,2c0,.51,0,.78,0,.82l-.46,0c-.27,0-.62,0-1,0a4.56,4.56,0,0,1-.81-.07,2.83,2.83,0,0,1-.7-.21,1.67,1.67,0,0,1-.63-.49,1.2,1.2,0,0,1-.24-.75,1.21,1.21,0,0,1,.29-.81,2,2,0,0,1,.8-.55,4.64,4.64,0,0,1,.85-.24,10.6,10.6,0,0,1,1.21-.16,1.3,1.3,0,0,0-.19-.63,1,1,0,0,0-.47-.37,2,2,0,0,0-.48-.12,4.4,4.4,0,0,0-.62,0h-.37l-.42,0,.08-.65.29,0h.59a4,4,0,0,1,1,.12,1.78,1.78,0,0,1,.75.39,1.6,1.6,0,0,1,.42.63A3.19,3.19,0,0,1,233.56,24Zm-.75,1.18v-.42c0-.17,0-.37,0-.59l-.75.09a4.1,4.1,0,0,0-.91.22,1.41,1.41,0,0,0-.49.31.68.68,0,0,0-.21.51.78.78,0,0,0,.18.54,1.13,1.13,0,0,0,.49.31,2.6,2.6,0,0,0,.53.12,4.93,4.93,0,0,0,.61,0h.54s0-.13,0-.32S232.81,25.52,232.81,25.19Z"/><path d="M239.34,26.8h-.75v-.57h0a6.72,6.72,0,0,1-.85.46,2.38,2.38,0,0,1-1,.24,1.39,1.39,0,0,1-1.06-.4,1.57,1.57,0,0,1-.38-1.13c0-.26,0-.57,0-.93s0-.62,0-.79,0-.66,0-1.1,0-.68,0-.74h.77s0,.28,0,.71,0,.77,0,1,0,.51,0,.84,0,.58,0,.71a1.54,1.54,0,0,0,.2.85.7.7,0,0,0,.62.27,2.36,2.36,0,0,0,1-.23,4.79,4.79,0,0,0,.77-.41s0-.22,0-.54,0-.72,0-1.2,0-.75,0-1.23,0-.74,0-.78h.77c0,.06,0,.24,0,.55s0,.84,0,1.59c0,.42,0,.79,0,1.11S239.34,26,239.34,26.8Z"/><path d="M241.91,26.8h-.77q0-.09,0-1.32t0-2.53c0-.37,0-.83,0-1.39s0-1.21,0-1.93h.77q0,.87,0,2t0,1.36q0,.5,0,2.11T241.91,26.8Zm3.5-.1-.47.43Q243.87,26,243,25.21l-.94-.9h0l1-1,1.47-1.53.47.49-1.22,1.19-.8.78h0Z"/></g><g class="cls-4"><path d="M233.67,48.76h-3.82l-.15-.45a6.48,6.48,0,0,0,.92-.55,7.74,7.74,0,0,0,.84-.67,3.61,3.61,0,0,0,.65-.81,1.55,1.55,0,0,0,.19-.75,1.29,1.29,0,0,0-.16-.68,1.3,1.3,0,0,0-.43-.43,1.94,1.94,0,0,0-.65-.25,4,4,0,0,0-.82-.08H230l.05-.54h.35a4.41,4.41,0,0,1,1,.11,2.73,2.73,0,0,1,.79.31,1.67,1.67,0,0,1,.63.63,1.83,1.83,0,0,1,.2.88,1.91,1.91,0,0,1-.22.88,2.92,2.92,0,0,1-.63.81,7.87,7.87,0,0,1-.8.65c-.26.18-.49.33-.68.44v0l.55,0h2.46Z"/><path d="M238.12,46.19a5.28,5.28,0,0,1-.13,1.15,2.33,2.33,0,0,1-.4.93,1.76,1.76,0,0,1-.57.49,1.7,1.7,0,0,1-2.13-.49,2.46,2.46,0,0,1-.38-.83,4.51,4.51,0,0,1-.16-1.24,4.83,4.83,0,0,1,.15-1.2,2.44,2.44,0,0,1,.39-.89,1.65,1.65,0,0,1,.57-.48,2,2,0,0,1,1.55,0,1.68,1.68,0,0,1,.58.49A2.34,2.34,0,0,1,238,45,4.89,4.89,0,0,1,238.12,46.19Zm-.64,0a5,5,0,0,0-.08-.9,2.78,2.78,0,0,0-.22-.72,1.16,1.16,0,0,0-.37-.45,1.13,1.13,0,0,0-1.16,0,1.17,1.17,0,0,0-.37.45,2.49,2.49,0,0,0-.23.8,6.19,6.19,0,0,0-.06.81,6.12,6.12,0,0,0,.06.8,2.67,2.67,0,0,0,.23.81,1.15,1.15,0,0,0,.37.45,1,1,0,0,0,.58.16,1,1,0,0,0,.57-.16,1.09,1.09,0,0,0,.38-.45,2.63,2.63,0,0,0,.23-.79A5.88,5.88,0,0,0,237.48,46.2Z"/><path d="M241.51,48.76h-.63s0-.28,0-.7,0-1,0-1.79v-.84q0-.75,0-1.29h0l-.52.35-.87.58-.25-.37,1.1-.78.67-.48.49.33q0,.59,0,1.37c0,.52,0,.83,0,.93q0,.42,0,1.52C241.51,48.34,241.51,48.73,241.51,48.76Z"/><path d="M247.33,47.39a1.34,1.34,0,0,1-.54,1.09,2,2,0,0,1-1.31.43,2.16,2.16,0,0,1-1.33-.4,1.28,1.28,0,0,1-.54-1.08,1.22,1.22,0,0,1,.23-.7,2.93,2.93,0,0,1,.75-.7h0a1.74,1.74,0,0,1-.62-.51,1.16,1.16,0,0,1-.19-.67,1.2,1.2,0,0,1,.5-1,1.88,1.88,0,0,1,1.19-.39,1.93,1.93,0,0,1,1.24.38,1.18,1.18,0,0,1,.47,1,1.25,1.25,0,0,1-.21.67,2.4,2.4,0,0,1-.63.63h0a2.13,2.13,0,0,1,.74.53A1.12,1.12,0,0,1,247.33,47.39Zm-.64.06a.78.78,0,0,0-.15-.47,1.35,1.35,0,0,0-.46-.38l-.45-.19-.57-.2a2.82,2.82,0,0,0-.54.49,1.05,1.05,0,0,0-.26.71.85.85,0,0,0,.38.71,1.37,1.37,0,0,0,.83.28,1.5,1.5,0,0,0,.88-.24A.82.82,0,0,0,246.69,47.45Zm-.14-2.52a.9.9,0,0,0-.29-.69,1.11,1.11,0,0,0-.78-.27,1.18,1.18,0,0,0-.75.24.77.77,0,0,0-.3.64.64.64,0,0,0,.16.43,1.37,1.37,0,0,0,.39.3l.39.17.52.18a1.85,1.85,0,0,0,.53-.52A1,1,0,0,0,246.55,44.93Z"/></g></g><g id="Ren"><g class="cls-4"><path d="M230.09,31.76l-1.31,1.08q-.23-.24-1.64-1.82t-4.33-4.93V26a5.35,5.35,0,0,0,1.06-.46,5.5,5.5,0,0,0,1.11-.76,3.43,3.43,0,0,0,.68-.88,2.91,2.91,0,0,0,.29-1.41,2.3,2.3,0,0,0-.42-1.39,2.44,2.44,0,0,0-1.17-.86,4.45,4.45,0,0,0-1.28-.28q-.67,0-1.24,0H221q0,2,0,3.52t0,2.15q0,1.44,0,3.91t0,3.1h-1.73q0-.63,0-2.44t0-4.51V23.71q0-1.42-.05-5.16l1,0,1.74,0a14.74,14.74,0,0,1,1.77.1,6.23,6.23,0,0,1,1.68.45,3.78,3.78,0,0,1,1.65,1.29,3.37,3.37,0,0,1,.61,2,3.51,3.51,0,0,1-.92,2.48,8,8,0,0,1-1.73,1.47v.05q1.44,1.68,3.15,3.47Z"/></g><g class="cls-4"><path d="M257.45,31.54l-1.31,1.08q-.23-.24-1.64-1.82t-4.33-4.93v-.09a5.35,5.35,0,0,0,1.06-.46,5.5,5.5,0,0,0,1.11-.76,3.43,3.43,0,0,0,.68-.88,2.91,2.91,0,0,0,.29-1.41,2.3,2.3,0,0,0-.42-1.39,2.44,2.44,0,0,0-1.17-.86,4.45,4.45,0,0,0-1.28-.28q-.67,0-1.24,0h-.87q0,2,0,3.52t0,2.15q0,1.44,0,3.91t0,3.1h-1.73q0-.63,0-2.44t0-4.51V23.49q0-1.42-.05-5.16l1,0,1.74,0a14.74,14.74,0,0,1,1.77.1,6.23,6.23,0,0,1,1.68.45,3.78,3.78,0,0,1,1.65,1.29,3.37,3.37,0,0,1,.61,2,3.51,3.51,0,0,1-.92,2.48,8,8,0,0,1-1.73,1.47v.05q1.44,1.68,3.15,3.47Z"/></g></g></g></svg>