<?xml version="1.0" encoding="UTF-8" standalone="no"?>
<svg
   xmlns:dc="http://purl.org/dc/elements/1.1/"
   xmlns:cc="http://creativecommons.org/ns#"
   xmlns:rdf="http://www.w3.org/1999/02/22-rdf-syntax-ns#"
   xmlns:svg="http://www.w3.org/2000/svg"
   xmlns="http://www.w3.org/2000/svg"
   xmlns:sodipodi="http://sodipodi.sourceforge.net/DTD/sodipodi-0.dtd"
   xmlns:inkscape="http://www.inkscape.org/namespaces/inkscape"
   version="1.1"
   x="0px"
   y="0px"
   viewBox="0 0 345 398.4"
   style="enable-background:new 0 0 345 398.4;"
   xml:space="preserve"
   id="svg861"
   sodipodi:docname="RaukR_2021.svg"
   inkscape:version="1.0.2 (e86c8708, 2021-01-15)"><metadata
   id="metadata867"><rdf:RDF><cc:Work
       rdf:about=""><dc:format>image/svg+xml</dc:format><dc:type
         rdf:resource="http://purl.org/dc/dcmitype/StillImage" /></cc:Work></rdf:RDF></metadata><defs
   id="defs865" /><sodipodi:namedview
   pagecolor="#ffffff"
   bordercolor="#666666"
   borderopacity="1"
   objecttolerance="10"
   gridtolerance="10"
   guidetolerance="10"
   inkscape:pageopacity="0"
   inkscape:pageshadow="2"
   inkscape:window-width="2560"
   inkscape:window-height="1298"
   id="namedview863"
   showgrid="false"
   inkscape:zoom="1.9362319"
   inkscape:cx="172.5"
   inkscape:cy="199.2"
   inkscape:window-x="2560"
   inkscape:window-y="25"
   inkscape:window-maximized="1"
   inkscape:current-layer="svg861" />
<style
   type="text/css"
   id="style833">
	.st0{fill:#FAA3C6;}
	.st1{fill:#F6458A;}
	.st2{font-family:'Norse-Bold';}
	.st3{font-size:80px;}
	.st4{fill:none;}
	.st5{font-size:70px;}
	.st6{font-size:170px;}
</style>
<g
   id="FrontBG">
	<polygon
   class="st0"
   points="10.4,105.6 10.4,292.7 172.5,386.3 334.5,292.7 334.5,105.6 172.5,12.1  "
   id="polygon835" />
</g>
<g
   id="frame">
	<path
   class="st1"
   d="M172.5,0L0,99.6v199.2l172.5,99.6L345,298.8V99.6L172.5,0z M334.5,276.9l-11.1,0v-42.7h-42.7V277h-42.7v-42.7   h-42.7V277h-42.7v-42.7h-42.7V277H66.9v-42.7H24.2V277H10.4c0,0,0,7.5,0,12.1V105.6l162.1-93.6l162.1,93.6V276.9z"
   id="path838" />
</g>
<g
   id="auk">
	<g
   id="g843">
		<g
   aria-label="auk"
   transform="matrix(1 0 0 1 120.642 175.9504)"
   id="text841"
   style="font-style:normal;font-variant:normal;font-weight:bold;font-stretch:normal;font-size:80px;font-family:Norse;-inkscape-font-specification:'Norse Bold'"
   class="st2 st3"><path
     d="m 22.32,-16.4 0.64,2.64 0.72,0.48 -0.64,0.8 0.32,2.24 1.04,10.08 1.36,0.72 h 1.04 l 5.92,-1.92 -0.88,-3.44 -1.2,-1.28 0.48,-0.64 -0.8,-5.04 -2,-7.44 v -1.12 l -3.84,-19.28 -0.96,-0.72 0.56,-1.44 -2.56,-12.24 -0.32,-0.8 -0.24,-0.64 0.08,-2.8 -1.36,-0.64 -6.56,0.32 -0.8,5.04 -0.72,3.36 -0.56,3.2 0.88,1.2 -1.44,1.68 -2.4,10.72 v 1.44 l -0.48,1.68 -0.24,1.52 -1.6,9.84 0.08,1.6 -0.88,0.88 -0.8,5.04 -2.16,9.76 2.8,1.76 4.96,0.48 0.88,-5.36 -0.56,-2.24 0.72,-0.88 0.88,-5.68 1.6,-0.64 0.72,-0.32 5.36,-1.28 1.6,-1.12 h 0.08 l 1.12,-0.16 z m -7.36,-18.32 -0.4,-1.28 0.8,-0.4 1.6,-9.76 1.2,8.48 0.32,1.44 0.32,4.16 1.6,8.64 -2.24,0.56 -5.2,1.6 0.08,-0.56 0.96,-5.2 -0.08,0.08 z"
     style="font-style:normal;font-variant:normal;font-weight:bold;font-stretch:normal;font-size:80px;font-family:Norse;-inkscape-font-specification:'Norse Bold'"
     id="path875" /><path
     d="m 40.3825,-13.92 0.8,0.88 -1.12,1.44 -0.24,3.76 0.08,4 4.8,4.16 5.04,0.08 2.56,-1.36 6.08,-3.12 0.16,0.56 0.64,4.32 7.76,-1.28 -1.12,-6.24 -0.48,-9.36 0.16,-17.76 -0.4,-2.32 -0.8,-0.8 0.8,-1.36 0.08,-1.12 0.16,-4.4 0.56,-5.2 -0.8,-0.88 0.88,-0.48 0.24,-4.32 -0.48,-3.92 -3.68,-0.08 -4,0.08 -0.16,5.68 0.32,10.08 v 6.64 l 0.48,9.76 -0.24,10.16 -0.32,5.2 -6.56,2.8 -2.64,0.96 -0.64,-0.08 -0.88,-0.72 -0.08,-1.2 -0.56,-9.36 0.56,-9.44 -0.16,-6 -0.08,-2.96 -0.08,-2.72 0.56,-3.04 -0.8,-1.76 -0.08,-1.44 0.8,-2.88 0.24,-2.56 0.08,-7.12 -7.2,-0.16 -1.04,2.96 0.48,12.88 0.4,2.48 -0.64,1.68 -0.08,5.68 0.56,8.72 z"
     style="font-style:normal;font-variant:normal;font-weight:bold;font-stretch:normal;font-size:80px;font-family:Norse;-inkscape-font-specification:'Norse Bold'"
     id="path877" /><path
     d="m 75.97,-58.4 0.88,5.68 -0.16,6.4 0.4,10.08 0.72,4.32 -0.48,17.28 v 0.48 l -0.16,1.28 0.96,1.12 -1.36,3.2 0.08,0.32 -0.24,0.08 -0.08,8.32 4.24,0.08 4.24,-0.16 0.08,-4.08 -0.32,-1.52 -0.08,-0.88 -0.08,-3.92 -0.32,-3.84 v -13.12 l 3.2,6.64 -0.08,0.16 2.72,4.4 -0.4,1.04 4.24,9.52 2.32,5.92 2,0.08 5.76,-3.2 -2.32,-5.2 -1.12,-0.24 0.4,-1.12 -2.72,-4.56 -2.8,-6.16 -4.72,-10.8 -0.4,-0.64 5.76,-10.96 -0.24,-0.24 0.24,-0.4 4.88,-8.08 2.32,-4.24 -2.48,-1.92 -4.88,-1.92 -2.48,5.84 0.32,2 -2.24,2.24 -1.36,3.44 -3.2,7.68 -1.36,2.16 -1.2,3.12 -0.24,0.64 v -2.4 l -0.16,-3.84 0.8,-19.84 -3.04,-1.04 z"
     style="font-style:normal;font-variant:normal;font-weight:bold;font-stretch:normal;font-size:80px;font-family:Norse;-inkscape-font-specification:'Norse Bold'"
     id="path879" /></g>
	</g>
	<g
   id="g849">
		<path
   id="rect845"
   style="fill:none"
   d="m 102.8,285.60001 h 140 V 357.8 h -140 z"
   class="st4" />
		<g
   aria-label="2021"
   transform="matrix(1 0 0 1 120.2055 346.2836)"
   id="text847"
   style="font-style:normal;font-variant:normal;font-weight:bold;font-stretch:normal;font-size:70px;font-family:Norse;-inkscape-font-specification:'Norse Bold'"
   class="st2 st5"><path
     d="m 16.31,-20.65 -0.42,-0.91 1.47,-0.56 1.26,-1.61 0.91,-1.75 5.53,-11.97 0.07,-3.01 -3.64,-3.92 -1.96,-2.94 -3.01,-3.92 -4.41,-0.56 -2.24,2.59 -2.94,2.8 0.14,0.91 -1.05,-0.14 -4.48,4.2 1.75,3.01 3.71,1.47 2.45,-3.64 0.84,-0.98 1.61,-1.54 1.19,-0.91 2.66,2.1 v 0.63 l 2.59,3.15 -0.63,2.17 -3.15,6.58 c -0.49,1.26 -1.26,3.22 -1.75,4.48 l -8.12,15.75 -1.47,3.64 1.12,5.11 2.17,-0.07 4.48,-0.28 11.13,0.91 2.52,-0.7 0.21,-5.67 -1.75,-1.4 -2.73,0.28 -0.98,1.12 -0.91,-0.91 -4.06,0.42 -3.43,-0.28 0.7,-1.96 1.26,-3.57 2.45,-5.67 z"
     style="font-style:normal;font-variant:normal;font-weight:bold;font-stretch:normal;font-size:70px;font-family:Norse;-inkscape-font-specification:'Norse Bold'"
     id="path883" /><path
     d="m 39.183594,-51.38 -1.33,4.13 -0.91,2.03 -3.15,6.79 -0.07,1.96 -1.12,-0.07 -2.45,4.9 -1.96,4.06 0.21,3.5 3.36,7.49 2.94,5.6 h -0.07 l 3.36,8.19 0.63,1.61 0.77,2.1 6.16,-0.7 3.43,-8.54 0.35,-1.47 2.45,-3.99 2.59,-6.09 2.17,-3.99 0.21,-2.87 -2.38,-4.48 h 0.07 l -2.87,-5.74 -0.98,-0.84 v -1.19 l -5.39,-12.6 -2.03,-0.14 z m 0.28,35.91 -1.33,-1.19 0.14,-0.84 -3.71,-8.96 1.26,-2.94 -0.07,-0.49 4.55,-9.17 v -0.56 l 1.47,-2.94 0.42,-1.12 4.76,11.34 1.05,-0.07 -0.63,1.12 2.66,5.88 0.28,0.56 -0.28,0.91 -2.87,6.16 v -0.07 l -1.47,3.64 0.28,1.19 -0.91,-0.14 -2.1,4.06 -0.49,1.19 z m 0.21,-12.53 -1.12,1.54 0.07,1.89 0.77,1.54 2.1,3.15 2.59,-1.26 0.63,-1.26 0.28,-0.63 1.19,-1.33 -0.07,-2.03 -0.98,-1.89 -2.31,-2.73 -2.52,1.26 z"
     style="font-style:normal;font-variant:normal;font-weight:bold;font-stretch:normal;font-size:70px;font-family:Norse;-inkscape-font-specification:'Norse Bold'"
     id="path885" /><path
     d="m 74.005313,-20.65 -0.420001,-0.91 1.47,-0.56 1.260001,-1.61 0.909999,-1.75 5.530001,-11.97 0.07,-3.01 -3.64,-3.92 -1.96,-2.94 -3.01,-3.92 -4.41,-0.56 -2.239999,2.59 -2.94,2.8 0.139999,0.91 -1.049999,-0.14 -4.480001,4.2 1.75,3.01 3.71,1.47 2.450001,-3.64 0.839999,-0.98 1.610001,-1.54 1.19,-0.91 2.659999,2.1 v 0.63 l 2.590001,3.15 -0.63,2.17 -3.15,6.58 c -0.490001,1.26 -1.260001,3.22 -1.75,4.48 l -8.120001,15.75 -1.47,3.64 1.120001,5.11 2.17,-0.07 4.479999,-0.28 11.130001,0.91 2.519999,-0.7 0.21,-5.67 -1.75,-1.4 -2.729999,0.28 -0.980001,1.12 -0.909999,-0.91 -4.06,0.42 -3.430001,-0.28 0.7,-1.96 1.260001,-3.57 2.45,-5.67 z"
     style="font-style:normal;font-variant:normal;font-weight:bold;font-stretch:normal;font-size:70px;font-family:Norse;-inkscape-font-specification:'Norse Bold'"
     id="path887" /><path
     d="m 95.268906,-30.31 1.26,0.84 -1.19,0.77 -0.35,3.01 0.07,2.31 c 0.07,1.96 0.28,3.71 0.35,5.67 l -0.91,13.86 V 0 h 4.62 l 2.590004,-0.56 0.28,-2.8 -0.14,-1.54 -1.19,-0.77 0.84,-0.63 -0.7,-17.43 0.63,-19.6 0.28,-6.37 -4.690004,-2.03 -0.91,0.7 -2.8,2.8 -0.56,2.03 -1.12,-0.49 -3.22,2.73 -1.61,0.98 -1.54,1.4 2.03,3.43 1.68,2.31 4.27,-4.13 1.89,-1.12 -0.14,8.54 z"
     style="font-style:normal;font-variant:normal;font-weight:bold;font-stretch:normal;font-size:70px;font-family:Norse;-inkscape-font-specification:'Norse Bold'"
     id="path889" /></g>
	</g>
</g>
<g
   id="Ren">
	<g
   id="g854">
		<g
   aria-label="R"
   transform="matrix(1 0 0 1 54.7318 216.4343)"
   id="text852"
   style="font-style:normal;font-variant:normal;font-weight:bold;font-stretch:normal;font-size:170px;font-family:Norse;-inkscape-font-specification:'Norse Bold'"
   class="st2 st6"><path
     d="m 28.22,-52.36 6.8,13.77 1.53,3.91 6.29,11.9 2.04,1.02 -0.17,2.89 5.95,13.6 4.08,6.63 13.77,-7.65 0.17,-4.93 -5.61,-5.95 -3.06,-6.46 v 0.17 l -2.38,-4.93 -1.02,-0.51 v -2.21 l -6.8,-11.56 c -1.19,-1.7 -2.21,-2.55 -3.57,-4.08 v -2.89 c -1.02,-2.04 -3.06,-4.93 -4.25,-7.31 l 4.76,-6.46 2.89,-3.57 5.44,-6.46 7.82,-9.52 1.19,-10.2 -8.16,-7.48 c -0.17,0 -2.89,0.85 -3.06,0.68 l -1.02,-4.25 -27.03,-23.46 -13.43,5.44 0.68,14.62 0.85,32.47 -1.36,3.4 0.34,8.84 0.68,19.89 v 6.63 l 1.53,2.21 -2.55,6.63 -1.02,27.03 11.22,1.02 6.8,-2.72 -0.17,-14.11 -0.51,-1.53 -0.51,-17 -0.17,-18.53 z m -0.68,-15.98 -0.68,-15.13 -0.34,-1.87 -0.34,-1.02 -0.68,-3.06 1.36,-3.23 v -1.7 l 0.34,-13.09 15.64,15.47 1.19,0.85 3.4,4.25 -1.87,2.38 c -2.21,3.06 -6.29,8.33 -8.67,11.22 l -8.5,10.54 -1.19,0.68 z"
     style="font-style:normal;font-variant:normal;font-weight:bold;font-stretch:normal;font-size:170px;font-family:Norse;-inkscape-font-specification:'Norse Bold'"
     id="path869" /></g>
	</g>
	<g
   id="g858">
		<g
   aria-label="R"
   transform="matrix(1 0 0 1 221.7318 214.9074)"
   id="text856"
   style="font-style:normal;font-variant:normal;font-weight:bold;font-stretch:normal;font-size:170px;font-family:Norse;-inkscape-font-specification:'Norse Bold'"
   class="st2 st6"><path
     d="m 28.22,-52.36 6.8,13.77 1.53,3.91 6.29,11.9 2.04,1.02 -0.17,2.89 5.95,13.6 4.08,6.63 13.77,-7.65 0.17,-4.93 -5.61,-5.95 -3.06,-6.46 v 0.17 l -2.38,-4.93 -1.02,-0.51 v -2.21 l -6.8,-11.56 c -1.19,-1.7 -2.21,-2.55 -3.57,-4.08 v -2.89 c -1.02,-2.04 -3.06,-4.93 -4.25,-7.31 l 4.76,-6.46 2.89,-3.57 5.44,-6.46 7.82,-9.52 1.19,-10.2 -8.16,-7.48 c -0.17,0 -2.89,0.85 -3.06,0.68 l -1.02,-4.25 -27.03,-23.46 -13.43,5.44 0.68,14.62 0.85,32.47 -1.36,3.4 0.34,8.84 0.68,19.89 v 6.63 l 1.53,2.21 -2.55,6.63 -1.02,27.03 11.22,1.02 6.8,-2.72 -0.17,-14.11 -0.51,-1.53 -0.51,-17 -0.17,-18.53 z m -0.68,-15.98 -0.68,-15.13 -0.34,-1.87 -0.34,-1.02 -0.68,-3.06 1.36,-3.23 v -1.7 l 0.34,-13.09 15.64,15.47 1.19,0.85 3.4,4.25 -1.87,2.38 c -2.21,3.06 -6.29,8.33 -8.67,11.22 l -8.5,10.54 -1.19,0.68 z"
     style="font-style:normal;font-variant:normal;font-weight:bold;font-stretch:normal;font-size:170px;font-family:Norse;-inkscape-font-specification:'Norse Bold'"
     id="path872" /></g>
	</g>
</g>
</svg>
