<?xml version="1.0" encoding="utf-8"?>
<!-- Generator: Adobe Illustrator 21.0.0, SVG Export Plug-In . SVG Version: 6.00 Build 0)  -->
<svg version="1.1" id="Layer_1" xmlns="http://www.w3.org/2000/svg" xmlns:xlink="http://www.w3.org/1999/xlink" x="0px" y="0px"
	 viewBox="0 0 400 424.1" style="enable-background:new 0 0 400 424.1;" xml:space="preserve">
<style type="text/css">
	.st0{display:none;}
	.st1{display:inline;fill:url(#SVGID_1_);}
	.st2{display:inline;fill:url(#SVGID_2_);}
	.st3{display:inline;}
	.st4{fill:#55A7DD;}
	.st5{display:inline;fill:url(#SVGID_3_);}
	.st6{fill:url(#SVGID_4_);}
	.st7{fill:url(#SVGID_5_);}
	.st8{enable-background:new    ;}
</style>
<g id="BackBG" class="st0">
	
		<linearGradient id="SVGID_1_" gradientUnits="userSpaceOnUse" x1="468.2347" y1="194.4379" x2="767.0348" y2="21.9256" gradientTransform="matrix(4.489700e-11 -1 -1 -4.489700e-11 306.8276 835.1785)">
		<stop  offset="0" style="stop-color:#0D3558"/>
		<stop  offset="1" style="stop-color:#93D5F6"/>
	</linearGradient>
	<polygon class="st1" points="26.2,118 26.2,317.2 198.7,416.8 371.1,317.2 371.1,118 198.7,18.4 	"/>
	
		<linearGradient id="SVGID_2_" gradientUnits="userSpaceOnUse" x1="477.3222" y1="189.22" x2="757.9953" y2="27.1734" gradientTransform="matrix(4.489700e-11 -1 -1 -4.489700e-11 306.8276 835.1785)">
		<stop  offset="0" style="stop-color:#41A1DA"/>
		<stop  offset="1" style="stop-color:#FFFFFF"/>
	</linearGradient>
	<polygon class="st2" points="36.6,124 36.6,311.1 198.7,404.7 360.7,311.1 360.7,124 198.7,30.5 	"/>
</g>
<g id="Rauk_shadow" class="st0">
	<g id="mQNGoU_2_" class="st3">
		<g>
			<path class="st4" d="M181.6,356.1c-1.6-0.4-1.3-2-1-3.3c0.5-1.7,1.4-3.2,1.8-4.9c0.4-1.8,1.5-3.2,1.2-5.5
				c-0.2-1.3,0.4-2.9,0.4-4.3c0-0.8-0.3-1.7-0.6-2.4c-0.6-1.5-1.2-3-1.9-4.3c-0.7-1.1-1.6-1.9-2.4-2.9c-0.4-0.6-0.9-1.3-1.1-2.1
				c-0.6-3.1-0.9-6.2-1.5-9.3c-0.5-2.5-1.1-5-1.7-7.5c-0.1-0.3-0.3-0.8-0.5-0.8c-1.8,0.1-1.9-2.1-2.5-3.6c-0.7-1.5-1.4-3.1-2.2-4.4
				c-0.4-0.7-1.1-1.1-1.8-1.3c-1.5-0.5-3-0.6-4.5-1.2c-4.2-1.6-8.8-11.8-5.7-18.8c0.6-1.3,1.1-2.6,2.3-0.7c0.2,0.3,1.4,0,1.6-0.5
				c1.5-3.7,4.5-4.1,6.9-5.2c2.6-1.2,4.1-3.6,5.1-6.5c1.3-3.8,1.8-7.9,1-12.2c-0.5-2.8-0.1-5.8-0.2-8.7c0-1.6-0.6-3.5-0.2-4.9
				c0.9-2.9-0.4-4.9-0.8-7.3c-1.4-8.4-4.5-15.7-7.5-23c-0.5-1.1-0.4-2.9-0.2-4.2c0.4-2,0.7-3.7-0.8-5.2c-0.4-0.4-0.5-1.4-0.6-2.2
				c-0.2-4.7-0.5-9.4-0.5-14.1c0-2.3,0.5-4.5,0.7-6.8c0.3-3.9,0.5-7.9,0.9-11.8c0.1-1.5,0.6-2.9,1.9-3.6c0.7-0.3,1.3-1.6,1.6-2.6
				c0.1-0.2-0.8-1.3-1.3-1.8c-0.6-0.6-1.4-1-1.8-1.8c-1.3-2.2-1.1-4,0.2-6.3c1.3-2.1,1.2-2.8-0.3-4.6c-3.4-3.9-6.3-8.4-8.7-13.5
				c-1.2-2.6-2.3-5.3-3.3-8.1c-1.2-3.5-1.5-7.2,0-10.7c-2.1-2.4-3-5.8-2.1-8.8c1-3.1,2.9-4.2,5.4-3.3c0.1-0.2,0.2-0.4,0.3-0.6
				c-0.3-0.9-0.5-1.9-0.9-2.7c-0.7-1.5-1.5-3-2.4-4.5c-0.4-0.7-0.8-1.5-1.3-1.8c-3.8-2-4.2-6.7-4.9-11.3c0-0.1,0-0.3,0-0.4
				c-0.1-5.3-0.1-5.3,3.7-6.7c0.5-0.2,0.9-0.5,1.3-0.8c0.9-0.7,1.6-0.5,2.7-0.2c2,0.7,4.2,0.4,6.3,0.4c1.3,0,2.6,0.2,3.9-0.1
				c1.6-0.3,3.2-1,4.8-1.6c0.4-0.1,0.9-0.5,1-0.3c1.2,2,2.9,1.4,4.4,1.5c3.2,0.3,6.3,1.2,9.3-1.5c0.9-0.8,2.4-0.1,3.6-0.1
				c1.1,0,2.3,0,3.4,0.2s2.3,0.5,3.4,0.7c0.5,0.1,1.1,0.3,1.6,0.2c1.5-0.2,3-0.5,4.5-0.7c0.3,0,0.7,0.4,0.9,0.8
				c1.2,1.7,2.7,2.4,4.4,2.1c0.4-0.1,0.9,0,1.3,0.1c3.5,0.7,6.9,1.6,10.4,2.2c1.8,0.3,3.6,0.5,5.4,0.2c1.6-0.3,3,0,4.4,0.8
				c1.6,0.9,3.3,1.5,4.6,2.2c0.7,1.3,1.2,2.4,1.9,3.4c1.9,2.9,1.2,8.5-1.4,10.3c-1.3,0.9-2.6,1.8-3.9,2.7c-1.8,1.2-1.8,3.9-1.7,5.9
				c0.1,1.3,1.6,2.5,2.6,3.5c1.4,1.4,3,2.4,4.3,3.9c0.4,0.5,0.6,2,0.4,2.8c-0.9,2.9-2.1,5.7-3.1,8.5c-0.2,0.6-0.5,1.4-0.5,2.1
				c0,2.2,0,4.5,0.4,6.6c0.3,1.8,1,3.6,1.8,5.1c1.4,2.6,3.2,4.8,2.5,8.7c-0.3,1.8-0.2,3.9-0.1,5.8c0,0.7,0.5,1.7,1,1.9
				c1.4,0.7,3.2,0.5,4.4,1.5c2,1.7,4.3,3.3,5.1,6.8c0.7,3.4,0.7,6.5-1.1,9.5c-0.6,1-0.7,2.7-0.9,4.2c-0.7,3.4-1.3,6.8-2,10.2
				c-0.1,0.3-0.2,0.5-0.3,0.8c-0.8,4.5-1.5,9.1-2.2,13.6c-0.1,0.5,0.2,1.1,0.3,1.7c0.4,2.4,0.7,4.8,1.3,7.1c0.7,2.8,0.8,5.5,0.3,8.3
				c-0.1,0.7-0.4,1.7-0.8,2.1c-1.5,1.1-1.8,3.2-2.1,5.1c-0.5,2.9-0.6,5.9-1.1,8.8c-0.2,1.2-0.6,2.6-1.2,3.5c-2,2.8-3.8,5.7-4.8,9.5
				c-0.6,2.2-1.9,3.7-3.7,4.4c-1.2,0.5-2.3,1.3-3.4,2.2c-0.7,0.6-1.4,1.4-1.7,2.3c-1.7,5.5-3.4,11.1-4.9,16.7
				c-0.4,1.7-0.3,3.7-0.1,5.6c0.9,12,1.3,24,3.1,35.9c0.7,4.6,2,8.7,3.3,12.9c1.2,3.6,2.2,7.3,3.2,11c1.1,4.1,3.7,5.3,6.5,5.8
				c2.3,0.3,3.7,1.9,4,5c0.1,1.2-0.2,1.9-1,2.1c-1.1,0.2-2.1,0.4-3.2,0.6c-1.6,0.3-3.2,0.5-4.8,0.7c-1.8,0.3-3.6,0.5-5.3,0.9
				c-1.2,0.3-2.3,0.8-3.4,1.3c-0.2,0.1-0.4,0.1-0.6,0.1c-2.6,0.3-5.3,0.5-7.9,0.7c-2.2,0.2-4.5,0.3-6.7,0.5c-0.8,0.1-1.5,1-2.3,1
				c-3,0.2-6,1.9-9.1,0.7c-2-0.7-3.9,1.1-5.9,1.7c-0.9,0.3-1.5,0.7-2.2-0.8C184.9,352.5,182.4,353.5,181.6,356.1z"/>
		</g>
	</g>
</g>
<g id="Mur" class="st0">
	
		<linearGradient id="SVGID_3_" gradientUnits="userSpaceOnUse" x1="36.5834" y1="120.1153" x2="360.6834" y2="120.1153" gradientTransform="matrix(1 0 0 -1 0 448.7307)">
		<stop  offset="0" style="stop-color:#0D3558"/>
		<stop  offset="1" style="stop-color:#93D5F6"/>
	</linearGradient>
	<polygon class="st5" points="360.7,295.3 360.7,311.1 198.7,404.7 36.6,311.1 36.6,295.3 50.4,295.3 50.4,252.6 93.1,252.6 
		93.1,295.3 135.8,295.3 135.8,252.6 178.6,252.6 178.6,295.3 221.3,295.3 221.3,252.6 264.1,252.6 264.1,295.3 306.8,295.3 
		306.8,252.6 349.6,252.6 349.6,295.3 	"/>
</g>
<g>
	<g id="FrontBG">
		
			<linearGradient id="SVGID_4_" gradientUnits="userSpaceOnUse" x1="481.6556" y1="186.22" x2="762.3286" y2="24.1734" gradientTransform="matrix(4.489700e-11 -1 -1 -4.489700e-11 306.8276 835.1785)">
			<stop  offset="0" style="stop-color:#41A1DA"/>
			<stop  offset="1" style="stop-color:#FFFFFF"/>
		</linearGradient>
		<polygon class="st6" points="39.6,119.6 39.6,306.7 201.7,400.3 363.7,306.7 363.7,119.6 201.7,26.1 		"/>
	</g>
	<g id="frame">
		
			<linearGradient id="SVGID_5_" gradientUnits="userSpaceOnUse" x1="29.1834" y1="235.4987" x2="374.1834" y2="235.4987" gradientTransform="matrix(1 0 0 -1 0 448.7307)">
			<stop  offset="0" style="stop-color:#0D3558"/>
			<stop  offset="1" style="stop-color:#93D5F6"/>
		</linearGradient>
		<path class="st7" d="M201.7,14L29.2,113.6v199.2l172.5,99.6l172.5-99.6V113.6L201.7,14z M363.7,290.9h-11.1v-42.7h-42.7v42.7
			h-42.7v-42.7h-42.9v42.7h-42.7v-42.7h-42.7v42.7H96.2v-42.7H53.5v42.7H39.7c0,0,0,7.5,0,12.1V119.6L201.8,26l162.1,93.6v171.3
			H363.7z"/>
	</g>
	<g id="auk">
		<g>
			<g class="st8">
				<path d="M173.8,170.5c0,5.7,0,10.3,0,13.8c0,3.6,0,5.5,0,5.7c-0.2,0-1.3,0.1-3.2,0.3c-1.9,0.1-4.3,0.2-7.3,0.2
					c-1.9,0-3.7-0.2-5.6-0.5c-1.9-0.3-3.5-0.8-4.9-1.5c-1.8-0.8-3.3-2-4.4-3.5c-1.1-1.5-1.7-3.2-1.7-5.3c0-2.2,0.7-4,2-5.6
					s3.2-2.9,5.6-3.8c1.5-0.6,3.5-1.2,5.9-1.7c2.5-0.5,5.3-0.9,8.5-1.1c-0.1-1.8-0.6-3.2-1.3-4.4c-0.8-1.1-1.9-2-3.3-2.6
					c-1-0.4-2.1-0.7-3.3-0.9c-1.2-0.2-2.7-0.3-4.3-0.3c-1,0-1.9,0-2.6,0.1c-0.7,0-1.7,0.1-2.9,0.2l0.5-4.5c0.3,0,1-0.1,2-0.1
					c1-0.1,2.4-0.1,4.2-0.1c2.7,0,5.1,0.3,7.2,0.8c2.1,0.6,3.9,1.5,5.2,2.7c1.3,1.2,2.3,2.6,2.9,4.4
					C173.5,164.7,173.8,167.2,173.8,170.5z M168.6,178.7c0-0.8,0-1.8,0-2.9c0-1.2,0-2.6,0-4.1c-1,0-2.8,0.2-5.3,0.6
					c-2.5,0.4-4.6,0.9-6.3,1.5c-1.3,0.5-2.4,1.2-3.4,2.2s-1.5,2.1-1.5,3.6c0,1.5,0.4,2.8,1.3,3.7c0.8,0.9,2,1.7,3.5,2.2
					c1.1,0.4,2.4,0.7,3.7,0.8c1.4,0.2,2.8,0.3,4.3,0.3c0.5,0,1,0,1.7,0c0.7,0,1.4,0,2.1-0.1c0-0.2,0-0.9,0-2.3
					C168.6,182.8,168.6,181,168.6,178.7z"/>
				<path d="M214.2,190h-5.2v-4l0,0c-1.6,1-3.6,2.1-6,3.2c-2.4,1.1-4.7,1.7-7,1.7c-3.1,0-5.6-0.9-7.4-2.8c-1.8-1.9-2.7-4.5-2.7-7.9
					c0-1.8,0-4,0.1-6.5c0-2.5,0.1-4.3,0.1-5.5c0-2.1,0-4.6-0.1-7.7c-0.1-3-0.1-4.8-0.1-5.1h5.4c0,0.3,0,1.9-0.1,4.9
					c0,3-0.1,5.4-0.1,7.1c0,1.6,0,3.5,0,5.9c0,2.3,0,4,0,5c0,2.7,0.5,4.7,1.4,5.9c0.9,1.3,2.3,1.9,4.3,1.9c2,0,4.3-0.5,6.7-1.6
					c2.4-1.1,4.2-2.1,5.3-2.9c0-0.3,0-1.5,0-3.8s0-5,0-8.4c0-2.4,0-5.3-0.1-8.6c-0.1-3.3-0.1-5.2-0.1-5.5h5.4c0,0.4,0,1.7-0.1,3.8
					s-0.1,5.9-0.1,11.1c0,2.9,0,5.5,0,7.7C214.1,180.3,214.1,184.3,214.2,190z"/>
				<path d="M232.1,190h-5.4c0-0.4,0.1-3.5,0.1-9.2s0.1-11.6,0.1-17.6c0-2.6,0-5.8,0-9.7c0-3.9-0.1-8.4-0.1-13.5h5.4
					c-0.1,4-0.1,8.7-0.1,14c0,5.3,0,8.5,0,9.5c0,2.3,0,7.3,0.1,14.7C232,185.7,232.1,189.6,232.1,190z M256.5,189.3l-3.3,3
					c-5-5.1-9.5-9.6-13.5-13.4c-4-3.8-6.1-5.9-6.5-6.3v-0.1c0.5-0.5,2.9-2.9,7.2-7.3c4.2-4.3,7.7-7.9,10.3-10.7l3.3,3.4
					c-2.7,2.6-5.6,5.4-8.5,8.3c-3,2.9-4.8,4.7-5.6,5.5v0C246.6,178.8,252.1,184.6,256.5,189.3z"/>
			</g>
		</g>
		<g>
			<g class="st8">
				<path d="M174.5,343.3c-0.2,0-1.9,0-5.1,0c-3.2,0-5.7,0-7.7,0c-2.3,0-5.1,0-8.4,0c-3.3,0-5.2,0-5.5,0l-1-3.2
					c1.8-0.9,4-2.2,6.4-3.9c2.4-1.7,4.4-3.3,5.9-4.7c2.1-2.1,3.7-4,4.6-5.6c0.9-1.7,1.3-3.4,1.3-5.2c0-1.9-0.4-3.5-1.1-4.7
					c-0.7-1.2-1.7-2.2-3-3c-1.3-0.8-2.8-1.4-4.6-1.8c-1.7-0.4-3.6-0.5-5.7-0.5c-0.5,0-0.9,0-1.2,0c-0.3,0-0.6,0-0.9,0l0.4-3.8
					c0.3,0,0.6,0,1,0c0.4,0,0.9,0,1.4,0c2.5,0,4.9,0.2,7,0.7c2.1,0.5,3.9,1.2,5.5,2.2c2,1.2,3.5,2.7,4.4,4.4
					c0.9,1.7,1.4,3.8,1.4,6.1c0,2.1-0.5,4.1-1.5,6.1c-1,2-2.5,3.9-4.4,5.7c-1.9,1.8-3.8,3.3-5.6,4.6c-1.8,1.3-3.4,2.3-4.8,3.1
					l0.1,0.1c1-0.1,2.3-0.1,3.8-0.2c1.6,0,3.1,0,4.5-0.1c2.2,0,4.8-0.1,7.7-0.1c3,0,4.6,0,4.9,0V343.3z"/>
				<path d="M205.6,325.3c0,2.6-0.3,5.2-0.9,8c-0.6,2.8-1.6,4.9-2.8,6.5c-1.2,1.5-2.6,2.7-4,3.4c-1.4,0.7-3.2,1.1-5.4,1.1
					c-2.1,0-3.9-0.4-5.4-1.1c-1.5-0.7-2.8-1.9-4-3.4c-1-1.3-1.9-3.3-2.6-5.8c-0.7-2.6-1.1-5.5-1.1-8.6c0-2.9,0.3-5.6,1-8.4
					c0.7-2.7,1.6-4.8,2.7-6.2c1.2-1.5,2.5-2.6,4-3.4c1.5-0.7,3.3-1.1,5.4-1.1c2.1,0,3.9,0.4,5.4,1.1c1.5,0.7,2.9,1.9,4.1,3.4
					c1.1,1.5,2.1,3.5,2.7,6.2C205.3,319.7,205.6,322.5,205.6,325.3z M201.1,325.4c0-2.2-0.2-4.3-0.5-6.3c-0.4-2-0.9-3.7-1.5-5
					c-0.7-1.3-1.5-2.4-2.6-3.1c-1.1-0.7-2.4-1.1-4.1-1.1c-1.6,0-3,0.4-4,1.1c-1.1,0.8-1.9,1.8-2.6,3.1c-0.8,1.6-1.3,3.5-1.6,5.6
					c-0.3,2.1-0.4,4-0.4,5.6c0,1.5,0.1,3.4,0.4,5.6c0.3,2.2,0.8,4.1,1.6,5.7c0.7,1.4,1.5,2.4,2.6,3.1c1,0.7,2.4,1.1,4.1,1.1
					c1.6,0,2.9-0.4,4-1.1c1.1-0.7,2-1.8,2.6-3.1c0.8-1.6,1.3-3.5,1.6-5.5C201,329,201.1,327.1,201.1,325.4z"/>
				<path d="M229.3,343.3h-4.4c0-0.3,0-1.9,0.1-4.9s0.1-7.1,0.1-12.5c0-0.4,0-2.4,0-5.9c0-3.5,0-6.5-0.1-9l-0.1,0
					c-0.5,0.3-1.7,1.1-3.6,2.4c-1.9,1.3-3.9,2.7-6,4.1l-1.7-2.6c2.2-1.5,4.8-3.3,7.7-5.4c2.9-2.1,4.5-3.2,4.7-3.4l3.4,2.3
					c0,2.8-0.1,5.9-0.1,9.6c0,3.6,0,5.8,0,6.5c0,2,0,5.5,0.1,10.6C229.3,340.3,229.3,343,229.3,343.3z"/>
				<path d="M269.9,333.7c0,3.1-1.3,5.6-3.8,7.6c-2.5,2-5.6,3-9.2,3c-3.7,0-6.7-0.9-9.3-2.8c-2.5-1.9-3.8-4.4-3.8-7.6
					c0-1.7,0.5-3.3,1.6-4.9c1.1-1.6,2.8-3.2,5.2-4.9v-0.1c-2-1.1-3.5-2.3-4.4-3.6s-1.3-2.8-1.3-4.7c0-2.7,1.2-5,3.5-6.8
					s5.1-2.7,8.3-2.7c3.6,0,6.5,0.9,8.7,2.6s3.3,4,3.3,6.7c0,1.6-0.5,3.2-1.5,4.7c-1,1.5-2.4,3-4.4,4.4v0.1c2.3,1.1,4,2.3,5.1,3.7
					C269.3,330,269.9,331.7,269.9,333.7z M265.4,334.2c0-1.2-0.4-2.3-1.1-3.3c-0.7-1-1.8-1.9-3.2-2.6c-0.7-0.4-1.8-0.8-3.1-1.3
					c-1.3-0.5-2.7-1-4-1.4c-1.3,0.9-2.6,2-3.8,3.4c-1.2,1.4-1.8,3.1-1.8,5c0,2,0.9,3.7,2.6,5c1.7,1.3,3.7,1.9,5.8,1.9
					c2.5,0,4.5-0.6,6.2-1.7C264.6,338,265.4,336.4,265.4,334.2z M264.5,316.5c0-2-0.7-3.5-2-4.8s-3.2-1.9-5.5-1.9
					c-2.1,0-3.8,0.6-5.2,1.7c-1.4,1.1-2.1,2.6-2.1,4.5c0,1.2,0.4,2.2,1.1,3s1.6,1.5,2.7,2.1c0.8,0.4,1.7,0.8,2.7,1.2
					s2.2,0.8,3.6,1.2c1.8-1.3,3-2.5,3.7-3.6C264.1,318.9,264.5,317.7,264.5,316.5z"/>
			</g>
		</g>
	</g>
	<g id="Ren">
		<g>
			<g class="st8">
				<path d="M149.6,224.6l-9.2,7.5c-1.1-1.1-4.9-5.4-11.4-12.7c-6.5-7.4-16.6-18.8-30.2-34.4l0.1-0.7c1.9-0.5,4.3-1.6,7.4-3.2
					c3.1-1.6,5.7-3.4,7.8-5.3c1.8-1.7,3.4-3.7,4.7-6.2c1.3-2.4,2-5.7,2-9.8c0-3.8-1-7-3-9.7c-2-2.7-4.7-4.7-8.2-6
					c-2.8-1.1-5.8-1.7-8.9-1.9c-3.1-0.2-6-0.3-8.6-0.3c-1.8,0-3.1,0-4,0c-0.9,0-1.6,0-2.1,0c-0.1,9.3-0.2,17.5-0.2,24.6
					c0,7.1,0,12.1,0,15c0,6.7,0,15.8,0.1,27.3c0.1,11.5,0.1,18.7,0.2,21.6H73.9c0-2.9,0.1-8.6,0.2-17c0.1-8.4,0.1-18.9,0.1-31.5
					c0-2.4,0-7,0-13.5s-0.1-18.6-0.4-36c0.5,0,2.9,0,7.3-0.1c4.4-0.1,8.4-0.1,12.1-0.1c4.2,0,8.4,0.2,12.4,0.7s7.9,1.5,11.7,3.1
					c4.8,2,8.7,5.1,11.5,9c2.8,4,4.2,8.6,4.2,14c0,6.9-2.1,12.7-6.4,17.3c-4.3,4.6-8.3,8-12.1,10.3v0.4c6.7,7.8,14,15.9,22,24.2
					C144.7,219.5,149,224,149.6,224.6z"/>
			</g>
		</g>
		<g>
			<g class="st8">
				<path d="M340.6,223.1l-9.2,7.5c-1.1-1.1-4.9-5.4-11.4-12.7c-6.5-7.4-16.6-18.8-30.2-34.4l0.1-0.7c1.9-0.5,4.3-1.6,7.4-3.2
					c3.1-1.6,5.7-3.4,7.8-5.3c1.8-1.7,3.4-3.7,4.7-6.2s2-5.7,2-9.8c0-3.8-1-7-3-9.7c-2-2.7-4.7-4.7-8.2-6c-2.8-1.1-5.8-1.7-8.9-1.9
					c-3.1-0.2-6-0.3-8.6-0.3c-1.8,0-3.1,0-4,0c-0.9,0-1.6,0-2.1,0c-0.1,9.3-0.2,17.5-0.2,24.6c0,7.1,0,12.1,0,15
					c0,6.7,0,15.8,0.1,27.3c0.1,11.5,0.1,18.7,0.2,21.6h-12.1c0-2.9,0.1-8.6,0.2-17c0.1-8.4,0.1-18.9,0.1-31.5c0-2.4,0-7,0-13.5
					s-0.1-18.6-0.4-36c0.5,0,2.9,0,7.3-0.1c4.4-0.1,8.4-0.1,12.1-0.1c4.2,0,8.4,0.2,12.4,0.7c4,0.5,7.9,1.5,11.7,3.1
					c4.8,2,8.7,5.1,11.5,9c2.8,4,4.2,8.6,4.2,14c0,6.9-2.1,12.7-6.4,17.3c-4.3,4.6-8.3,8-12.1,10.3v0.4c6.7,7.8,14,15.9,22,24.2
					C335.7,218,340,222.4,340.6,223.1z"/>
			</g>
		</g>
	</g>
</g>
<g id="Rauk" class="st0">
	<g id="mQNGoU_1_" class="st3">
		<g>
			<path d="M185.9,300.5c-1.2-0.2-1.1-1.1-0.8-1.9c0.4-1,1.2-1.8,1.4-2.8c0.3-1.1,1.2-1.9,0.9-3.2c-0.2-0.8,0.3-1.7,0.4-2.5
				c0-0.5-0.3-1-0.5-1.4c-0.5-0.9-0.9-1.7-1.6-2.5c-0.5-0.6-1.3-1.1-1.9-1.7c-0.4-0.3-0.7-0.8-0.9-1.2c-0.5-1.8-0.7-3.6-1.2-5.4
				c-0.4-1.5-0.9-2.9-1.4-4.4c-0.1-0.2-0.3-0.5-0.4-0.5c-1.4,0-1.5-1.2-2-2.1s-1.1-1.8-1.8-2.6c-0.3-0.4-0.9-0.6-1.4-0.8
				c-1.2-0.3-2.4-0.4-3.6-0.7c-3.3-0.9-7.1-6.8-4.5-10.9c0.5-0.7,0.9-1.5,1.8-0.4c0.1,0.2,1.1,0,1.3-0.3c1.2-2.2,3.6-2.4,5.5-3
				c2-0.7,3.3-2.1,4.1-3.8c1.1-2.2,1.4-4.6,0.8-7.1c-0.4-1.6-0.1-3.4-0.2-5.1c0-1-0.5-2-0.1-2.8c0.7-1.7-0.3-2.8-0.7-4.2
				c-1.1-4.9-3.6-9.1-6-13.3c-0.4-0.6-0.3-1.7-0.1-2.4c0.3-1.2,0.6-2.2-0.6-3c-0.3-0.2-0.4-0.8-0.5-1.3c-0.2-2.7-0.4-5.5-0.4-8.2
				c0-1.3,0.4-2.6,0.6-4c0.3-2.3,0.4-4.6,0.7-6.8c0.1-0.9,0.5-1.7,1.5-2.1c0.6-0.2,1-0.9,1.3-1.5c0.1-0.1-0.7-0.7-1.1-1.1
				c-0.5-0.4-1.1-0.6-1.5-1c-1-1.3-0.9-2.3,0.2-3.6c1-1.2,0.9-1.7-0.2-2.6c-2.7-2.3-5-4.9-6.9-7.9c-1-1.5-1.9-3.1-2.7-4.7
				c-1-2-1.2-4.2,0-6.2c-1.6-1.4-2.4-3.4-1.7-5.1c0.8-1.8,2.3-2.4,4.3-1.9c0.1-0.1,0.2-0.2,0.3-0.3c-0.2-0.5-0.4-1.1-0.7-1.6
				c-0.6-0.9-1.2-1.8-1.9-2.6c-0.3-0.4-0.6-0.9-1.1-1.1c-3-1.2-3.4-3.9-4-6.5c0-0.1,0-0.2,0-0.3c-0.1-3.1-0.1-3.1,2.9-3.9
				c0.4-0.1,0.7-0.3,1.1-0.5c0.7-0.4,1.3-0.3,2.1-0.1c1.6,0.4,3.3,0.2,5,0.2c1,0,2.1,0.1,3.1-0.1c1.3-0.2,2.6-0.6,3.9-0.9
				c0.3-0.1,0.7-0.3,0.8-0.2c1,1.1,2.3,0.8,3.5,0.9c2.5,0.1,5.1,0.7,7.5-0.9c0.7-0.4,1.9-0.1,2.9-0.1c0.9,0,1.8,0,2.7,0.1
				c0.9,0.1,1.8,0.3,2.7,0.4c0.4,0.1,0.8,0.2,1.3,0.1c1.2-0.1,2.4-0.3,3.6-0.4c0.2,0,0.5,0.3,0.7,0.5c1,1,2.1,1.4,3.5,1.2
				c0.3,0,0.7,0,1,0c2.8,0.4,5.5,0.9,8.3,1.3c1.4,0.2,2.9,0.3,4.3,0.1c1.3-0.2,2.4,0,3.5,0.4c1.3,0.5,2.6,0.9,3.7,1.3
				c0.5,0.7,1,1.4,1.5,2c1.5,1.7,0.9,5-1.1,6c-1,0.5-2.1,1.1-3.1,1.6c-1.5,0.7-1.5,2.2-1.4,3.4c0.1,0.7,1.3,1.4,2.1,2
				c1.1,0.8,2.4,1.4,3.4,2.3c0.3,0.3,0.5,1.2,0.3,1.6c-0.7,1.7-1.7,3.3-2.5,5c-0.2,0.4-0.4,0.8-0.4,1.2c0,1.3,0,2.6,0.3,3.8
				c0.2,1,0.8,2.1,1.4,2.9c1.1,1.5,2.6,2.8,2,5.1c-0.3,1.1-0.1,2.3,0,3.4c0,0.4,0.4,1,0.8,1.1c1.2,0.4,2.5,0.3,3.5,0.9
				c1.6,1,3.5,1.9,4.1,4c0.6,2,0.6,3.8-0.9,5.5c-0.5,0.6-0.5,1.6-0.7,2.4c-0.5,2-1,4-1.6,5.9c0,0.2-0.2,0.3-0.2,0.5
				c-0.6,2.6-1.2,5.3-1.8,7.9c-0.1,0.3,0.1,0.7,0.2,1c0.3,1.4,0.6,2.8,1,4.1c0.5,1.6,0.7,3.2,0.3,4.8c-0.1,0.4-0.3,1-0.6,1.2
				c-1.2,0.7-1.4,1.8-1.7,3c-0.4,1.7-0.5,3.4-0.9,5.1c-0.2,0.7-0.5,1.5-1,2c-1.6,1.6-3,3.3-3.9,5.5c-0.5,1.3-1.5,2.2-2.9,2.6
				c-0.9,0.3-1.9,0.7-2.7,1.3c-0.5,0.3-1.1,0.8-1.4,1.4c-1.4,3.2-2.7,6.4-3.9,9.7c-0.3,1-0.2,2.2-0.1,3.2c0.7,7,1,13.9,2.5,20.8
				c0.6,2.7,1.6,5,2.6,7.5c0.9,2.1,1.8,4.3,2.6,6.4c0.9,2.4,2.9,3.1,5.2,3.3c1.9,0.2,2.9,1.1,3.2,2.9c0.1,0.7-0.1,1.1-0.8,1.2
				c-0.9,0.1-1.7,0.3-2.6,0.4c-1.3,0.2-2.6,0.3-3.9,0.4c-1.4,0.2-2.9,0.3-4.3,0.5c-0.9,0.2-1.8,0.5-2.7,0.7c-0.2,0-0.3,0-0.5,0.1
				c-2.1,0.1-4.2,0.3-6.3,0.4c-1.8,0.1-3.6,0.1-5.4,0.3c-0.6,0.1-1.2,0.6-1.8,0.6c-2.4,0.1-4.8,1.1-7.3,0.4c-1.6-0.4-3.1,0.6-4.7,1
				c-0.7,0.2-1.2,0.4-1.7-0.5C188.5,298.4,186.5,299,185.9,300.5z"/>
		</g>
	</g>
</g>
</svg>
