<svg xmlns="http://www.w3.org/2000/svg" viewBox="0 0 60 60"><defs><style>.cls-1{fill:#1769a3;}.cls-2{fill:#d8e1f4;}.cls-3{font-size:13.87px;}.cls-3,.cls-4{font-family:DIN-Medium, DIN Medium;}.cls-4{font-size:7.79px;fill:#fff;}</style></defs><title>logo</title><g id="bg-blue"><polygon class="cls-1" points="54.6 44.85 54.6 16.33 29.91 2.07 5.21 16.33 5.21 44.85 29.91 59.11 54.6 44.85"/></g><g id="front-white"><polygon class="cls-2" points="29.91 3.49 6.44 17.04 6.44 41.43 9.01 41.43 9.01 35.51 14.71 35.51 14.71 41.43 21.23 41.43 21.23 35.51 26.93 35.51 26.93 41.43 33.45 41.43 33.45 35.51 39.15 35.51 39.15 41.43 45.67 41.43 45.67 35.51 51.38 35.51 51.38 41.43 53.37 41.43 53.37 17.04 29.91 3.49"/></g><g id="text"><text class="cls-3" transform="translate(9.51 30.85)">RaukR</text><text class="cls-4" transform="translate(21.69 49.89)">2018</text></g></svg>